<mxfile host="Electron" agent="Mozilla/5.0 (Windows NT 10.0; Win64; x64) AppleWebKit/537.36 (KHTML, like Gecko) draw.io/24.7.17 Chrome/128.0.6613.36 Electron/32.0.1 Safari/537.36" version="24.7.17">
  <diagram id="C5RBs43oDa-KdzZeNtuy" name="Page-1">
    <mxGraphModel dx="562" dy="537" grid="1" gridSize="10" guides="1" tooltips="1" connect="1" arrows="1" fold="1" page="1" pageScale="1" pageWidth="827" pageHeight="1169" math="0" shadow="0">
      <root>
        <mxCell id="WIyWlLk6GJQsqaUBKTNV-0" />
        <mxCell id="WIyWlLk6GJQsqaUBKTNV-1" parent="WIyWlLk6GJQsqaUBKTNV-0" />
        <mxCell id="hRRo8jBFLK105pNUqOtZ-27" value="" style="rounded=1;whiteSpace=wrap;html=1;fillColor=#fff2cc;gradientColor=#ffd966;strokeColor=#d6b656;shadow=1;sketch=1;curveFitting=1;jiggle=2;glass=1;" vertex="1" parent="WIyWlLk6GJQsqaUBKTNV-1">
          <mxGeometry x="100" y="61" width="330" height="480" as="geometry" />
        </mxCell>
        <mxCell id="hRRo8jBFLK105pNUqOtZ-1" value="" style="edgeStyle=orthogonalEdgeStyle;rounded=0;orthogonalLoop=1;jettySize=auto;html=1;" edge="1" parent="WIyWlLk6GJQsqaUBKTNV-1" source="WIyWlLk6GJQsqaUBKTNV-3" target="hRRo8jBFLK105pNUqOtZ-0">
          <mxGeometry relative="1" as="geometry" />
        </mxCell>
        <mxCell id="WIyWlLk6GJQsqaUBKTNV-3" value="&lt;span style=&quot;&quot;&gt;Development done&lt;/span&gt;" style="rounded=1;whiteSpace=wrap;html=1;fontSize=12;glass=0;strokeWidth=1;shadow=0;fontStyle=1;fillColor=#008a00;fontColor=#ffffff;strokeColor=#005700;" parent="WIyWlLk6GJQsqaUBKTNV-1" vertex="1">
          <mxGeometry x="160" y="80" width="180" height="40" as="geometry" />
        </mxCell>
        <mxCell id="WIyWlLk6GJQsqaUBKTNV-11" value="&lt;b&gt;Monitor Jenkins progress&lt;/b&gt;&lt;div&gt;across two pipelines&lt;/div&gt;" style="rounded=1;whiteSpace=wrap;html=1;fontSize=12;glass=0;strokeWidth=1;shadow=0;fillColor=#008a00;fontColor=#ffffff;strokeColor=#005700;" parent="WIyWlLk6GJQsqaUBKTNV-1" vertex="1">
          <mxGeometry x="160" y="480" width="180" height="40" as="geometry" />
        </mxCell>
        <mxCell id="hRRo8jBFLK105pNUqOtZ-11" style="edgeStyle=orthogonalEdgeStyle;rounded=0;orthogonalLoop=1;jettySize=auto;html=1;exitX=0.5;exitY=1;exitDx=0;exitDy=0;entryX=0.5;entryY=0;entryDx=0;entryDy=0;" edge="1" parent="WIyWlLk6GJQsqaUBKTNV-1" source="hRRo8jBFLK105pNUqOtZ-0" target="hRRo8jBFLK105pNUqOtZ-4">
          <mxGeometry relative="1" as="geometry" />
        </mxCell>
        <mxCell id="hRRo8jBFLK105pNUqOtZ-0" value="&lt;div&gt;&lt;span style=&quot;background-color: initial;&quot;&gt;Start Mac&lt;/span&gt;&lt;/div&gt;" style="whiteSpace=wrap;html=1;rounded=1;glass=0;strokeWidth=1;shadow=0;fontStyle=1;fillColor=#a0522d;fontColor=#ffffff;strokeColor=#6D1F00;" vertex="1" parent="WIyWlLk6GJQsqaUBKTNV-1">
          <mxGeometry x="125" y="143" width="250" height="30" as="geometry" />
        </mxCell>
        <mxCell id="hRRo8jBFLK105pNUqOtZ-12" style="edgeStyle=orthogonalEdgeStyle;rounded=0;orthogonalLoop=1;jettySize=auto;html=1;exitX=0.5;exitY=1;exitDx=0;exitDy=0;entryX=0.5;entryY=0;entryDx=0;entryDy=0;" edge="1" parent="WIyWlLk6GJQsqaUBKTNV-1" source="hRRo8jBFLK105pNUqOtZ-4" target="hRRo8jBFLK105pNUqOtZ-5">
          <mxGeometry relative="1" as="geometry" />
        </mxCell>
        <mxCell id="hRRo8jBFLK105pNUqOtZ-4" value="&lt;div&gt;Start Docker Desktop&lt;/div&gt;" style="whiteSpace=wrap;html=1;rounded=1;glass=0;strokeWidth=1;shadow=0;fontStyle=1;fillColor=#a0522d;fontColor=#ffffff;strokeColor=#6D1F00;" vertex="1" parent="WIyWlLk6GJQsqaUBKTNV-1">
          <mxGeometry x="125" y="196" width="250" height="30" as="geometry" />
        </mxCell>
        <mxCell id="hRRo8jBFLK105pNUqOtZ-13" style="edgeStyle=orthogonalEdgeStyle;rounded=0;orthogonalLoop=1;jettySize=auto;html=1;exitX=0.5;exitY=1;exitDx=0;exitDy=0;entryX=0.5;entryY=0;entryDx=0;entryDy=0;" edge="1" parent="WIyWlLk6GJQsqaUBKTNV-1" source="hRRo8jBFLK105pNUqOtZ-5" target="hRRo8jBFLK105pNUqOtZ-6">
          <mxGeometry relative="1" as="geometry" />
        </mxCell>
        <mxCell id="hRRo8jBFLK105pNUqOtZ-5" value="&lt;div&gt;Start Jenkins&lt;/div&gt;&lt;div&gt;&lt;span style=&quot;font-weight: normal;&quot;&gt;via 2 shell scripts&lt;/span&gt;&lt;/div&gt;" style="whiteSpace=wrap;html=1;rounded=1;glass=0;strokeWidth=1;shadow=0;fontStyle=1;fillColor=#a0522d;fontColor=#ffffff;strokeColor=#6D1F00;" vertex="1" parent="WIyWlLk6GJQsqaUBKTNV-1">
          <mxGeometry x="125" y="244" width="250" height="40" as="geometry" />
        </mxCell>
        <mxCell id="hRRo8jBFLK105pNUqOtZ-14" style="edgeStyle=orthogonalEdgeStyle;rounded=0;orthogonalLoop=1;jettySize=auto;html=1;exitX=0.5;exitY=1;exitDx=0;exitDy=0;entryX=0.5;entryY=0;entryDx=0;entryDy=0;" edge="1" parent="WIyWlLk6GJQsqaUBKTNV-1" source="hRRo8jBFLK105pNUqOtZ-6" target="hRRo8jBFLK105pNUqOtZ-7">
          <mxGeometry relative="1" as="geometry" />
        </mxCell>
        <mxCell id="hRRo8jBFLK105pNUqOtZ-6" value="&lt;div&gt;&lt;b&gt;Build the Flutter Environment&lt;/b&gt;&lt;/div&gt;&lt;div&gt;Docker Image for Jenkinsfile usage&lt;/div&gt;" style="whiteSpace=wrap;html=1;rounded=1;glass=0;strokeWidth=1;shadow=0;fontStyle=0;fillColor=#a0522d;fontColor=#ffffff;strokeColor=#6D1F00;" vertex="1" parent="WIyWlLk6GJQsqaUBKTNV-1">
          <mxGeometry x="125" y="301" width="250" height="40" as="geometry" />
        </mxCell>
        <mxCell id="hRRo8jBFLK105pNUqOtZ-15" style="edgeStyle=orthogonalEdgeStyle;rounded=0;orthogonalLoop=1;jettySize=auto;html=1;exitX=0.5;exitY=1;exitDx=0;exitDy=0;entryX=0.5;entryY=0;entryDx=0;entryDy=0;" edge="1" parent="WIyWlLk6GJQsqaUBKTNV-1" source="hRRo8jBFLK105pNUqOtZ-7" target="hRRo8jBFLK105pNUqOtZ-8">
          <mxGeometry relative="1" as="geometry" />
        </mxCell>
        <mxCell id="hRRo8jBFLK105pNUqOtZ-7" value="&lt;div&gt;&lt;b&gt;Start Jenkins Agent&lt;/b&gt;&lt;/div&gt;&lt;div&gt;&lt;span style=&quot;background-color: initial;&quot;&gt;on Mac host&amp;nbsp;&lt;/span&gt;&lt;span style=&quot;background-color: initial;&quot;&gt;(for iOS builds)&lt;/span&gt;&lt;/div&gt;" style="whiteSpace=wrap;html=1;rounded=1;glass=0;strokeWidth=1;shadow=0;fontStyle=0;fillColor=#a0522d;fontColor=#ffffff;strokeColor=#6D1F00;" vertex="1" parent="WIyWlLk6GJQsqaUBKTNV-1">
          <mxGeometry x="125" y="364" width="250" height="40" as="geometry" />
        </mxCell>
        <mxCell id="hRRo8jBFLK105pNUqOtZ-16" style="edgeStyle=orthogonalEdgeStyle;rounded=0;orthogonalLoop=1;jettySize=auto;html=1;exitX=0.5;exitY=1;exitDx=0;exitDy=0;entryX=0.5;entryY=0;entryDx=0;entryDy=0;" edge="1" parent="WIyWlLk6GJQsqaUBKTNV-1" source="hRRo8jBFLK105pNUqOtZ-8" target="WIyWlLk6GJQsqaUBKTNV-11">
          <mxGeometry relative="1" as="geometry" />
        </mxCell>
        <mxCell id="hRRo8jBFLK105pNUqOtZ-8" value="&lt;div&gt;&lt;span style=&quot;font-weight: normal;&quot;&gt;Adjust versioning, merge, build,&lt;/span&gt;&lt;/div&gt;&lt;div&gt;&lt;span style=&quot;font-weight: normal;&quot;&gt;and &lt;/span&gt;deploy to stores&lt;/div&gt;" style="whiteSpace=wrap;html=1;rounded=1;glass=0;strokeWidth=1;shadow=0;fontStyle=1;fillColor=#0050ef;fontColor=#ffffff;strokeColor=#001DBC;" vertex="1" parent="WIyWlLk6GJQsqaUBKTNV-1">
          <mxGeometry x="125" y="427" width="250" height="30" as="geometry" />
        </mxCell>
        <mxCell id="hRRo8jBFLK105pNUqOtZ-19" value="" style="verticalLabelPosition=bottom;html=1;verticalAlign=top;align=center;strokeColor=none;fillColor=#00BEF2;shape=mxgraph.azure.script_file;pointerEvents=1;aspect=fixed;" vertex="1" parent="WIyWlLk6GJQsqaUBKTNV-1">
          <mxGeometry x="390" y="311" width="19" height="20" as="geometry" />
        </mxCell>
        <mxCell id="hRRo8jBFLK105pNUqOtZ-20" value="" style="verticalLabelPosition=bottom;html=1;verticalAlign=top;align=center;strokeColor=none;fillColor=#00BEF2;shape=mxgraph.azure.script_file;pointerEvents=1;aspect=fixed;" vertex="1" parent="WIyWlLk6GJQsqaUBKTNV-1">
          <mxGeometry x="390" y="374" width="19" height="20" as="geometry" />
        </mxCell>
        <mxCell id="hRRo8jBFLK105pNUqOtZ-21" value="" style="verticalLabelPosition=bottom;html=1;verticalAlign=top;align=center;strokeColor=none;fillColor=#00BEF2;shape=mxgraph.azure.script_file;pointerEvents=1;aspect=fixed;" vertex="1" parent="WIyWlLk6GJQsqaUBKTNV-1">
          <mxGeometry x="390" y="432" width="19" height="20" as="geometry" />
        </mxCell>
        <mxCell id="hRRo8jBFLK105pNUqOtZ-22" value="" style="group" vertex="1" connectable="0" parent="WIyWlLk6GJQsqaUBKTNV-1">
          <mxGeometry x="383.5" y="247" width="32" height="34" as="geometry" />
        </mxCell>
        <mxCell id="hRRo8jBFLK105pNUqOtZ-17" value="" style="verticalLabelPosition=bottom;html=1;verticalAlign=top;align=center;strokeColor=none;fillColor=#00BEF2;shape=mxgraph.azure.script_file;pointerEvents=1;aspect=fixed;" vertex="1" parent="hRRo8jBFLK105pNUqOtZ-22">
          <mxGeometry width="19" height="20" as="geometry" />
        </mxCell>
        <mxCell id="hRRo8jBFLK105pNUqOtZ-18" value="" style="verticalLabelPosition=bottom;html=1;verticalAlign=top;align=center;strokeColor=none;fillColor=#00BEF2;shape=mxgraph.azure.script_file;pointerEvents=1;aspect=fixed;" vertex="1" parent="hRRo8jBFLK105pNUqOtZ-22">
          <mxGeometry x="13" y="14" width="19" height="20" as="geometry" />
        </mxCell>
        <mxCell id="hRRo8jBFLK105pNUqOtZ-23" value="" style="image;aspect=fixed;html=1;points=[];align=center;fontSize=12;image=img/lib/azure2/other/Azure_Monitor_Dashboard.svg;" vertex="1" parent="WIyWlLk6GJQsqaUBKTNV-1">
          <mxGeometry x="390" y="490.7" width="20" height="18.59" as="geometry" />
        </mxCell>
        <mxCell id="hRRo8jBFLK105pNUqOtZ-24" value="" style="image;sketch=0;aspect=fixed;html=1;points=[];align=center;fontSize=12;image=img/lib/mscae/Docker.svg;" vertex="1" parent="WIyWlLk6GJQsqaUBKTNV-1">
          <mxGeometry x="389" y="202.8" width="20" height="16.4" as="geometry" />
        </mxCell>
        <mxCell id="hRRo8jBFLK105pNUqOtZ-25" value="" style="image;aspect=fixed;perimeter=ellipsePerimeter;html=1;align=center;shadow=0;dashed=0;spacingTop=3;image=img/lib/active_directory/mac_client.svg;" vertex="1" parent="WIyWlLk6GJQsqaUBKTNV-1">
          <mxGeometry x="389" y="147.36" width="20" height="21.28" as="geometry" />
        </mxCell>
        <mxCell id="hRRo8jBFLK105pNUqOtZ-26" value="" style="image;aspect=fixed;html=1;points=[];align=center;fontSize=12;image=img/lib/azure2/ai_machine_learning/Face_APIs.svg;" vertex="1" parent="WIyWlLk6GJQsqaUBKTNV-1">
          <mxGeometry x="389" y="90" width="20" height="20" as="geometry" />
        </mxCell>
      </root>
    </mxGraphModel>
  </diagram>
</mxfile>
